HIERARCHY
ROOT Hips
{
 OFFSET 0.000000 0.000000 0.000000
 CHANNELS 6 Xposition Yposition Zposition Yrotation Xrotation Zrotation
 JOINT Chest
 {
  OFFSET 0.000000 9.585900 0.002600
  CHANNELS 3 Yrotation Xrotation Zrotation
  JOINT Chest2
  {
   OFFSET 0.000000 9.601200 -0.005300
   CHANNELS 3 Yrotation Xrotation Zrotation
   JOINT Chest3
   {
    OFFSET 0.000000 9.561800 0.000000
    CHANNELS 3 Yrotation Xrotation Zrotation
    JOINT Chest4
    {
     OFFSET 0.000000 9.552100 0.000000
     CHANNELS 3 Yrotation Xrotation Zrotation
     JOINT Neck
     {
      OFFSET 0.000000 14.453000 0.000000
      CHANNELS 3 Yrotation Xrotation Zrotation
      JOINT Head
      {
       OFFSET 0.000000 8.936500 -0.011300
       CHANNELS 3 Yrotation Xrotation Zrotation
       End Site
       {
        OFFSET 0.000000 17.073600 -0.006000
       }
      }
     }
     JOINT RightCollar
     {
      OFFSET -2.921100 9.558500 0.000000
      CHANNELS 3 Yrotation Xrotation Zrotation
      JOINT RightShoulder
      {
       OFFSET -13.519700 0.000000 0.000000
       CHANNELS 3 Yrotation Xrotation Zrotation
       JOINT RightElbow
       {
        OFFSET 0.000000 -29.696600 0.000000
        CHANNELS 3 Yrotation Xrotation Zrotation
        JOINT RightWrist
        {
         OFFSET 0.000000 -24.004700 0.000000
         CHANNELS 3 Yrotation Xrotation Zrotation
         End Site
         {
          OFFSET 0.000000 -17.728500 0.000000
         }
        }
       }
      }
     }
     JOINT LeftCollar
     {
      OFFSET 2.921100 9.558500 0.000000
      CHANNELS 3 Yrotation Xrotation Zrotation
      JOINT LeftShoulder
      {
       OFFSET 13.519700 0.000000 0.000000
       CHANNELS 3 Yrotation Xrotation Zrotation
       JOINT LeftElbow
       {
        OFFSET 0.000000 -29.696600 0.000000
        CHANNELS 3 Yrotation Xrotation Zrotation
        JOINT LeftWrist
        {
         OFFSET 0.000000 -24.004700 0.000000
         CHANNELS 3 Yrotation Xrotation Zrotation
         End Site
         {
          OFFSET 0.000000 -17.728500 0.000000
         }
        }
       }
      }
     }
    }
   }
  }
 }
 JOINT RightHip
 {
  OFFSET -7.771700 -0.012900 -0.001300
  CHANNELS 3 Yrotation Xrotation Zrotation
  JOINT RightKnee
  {
   OFFSET 0.000000 -40.869800 0.001200
   CHANNELS 3 Yrotation Xrotation Zrotation
   JOINT RightAnkle
   {
    OFFSET 0.000000 -39.717900 0.002100
    CHANNELS 3 Yrotation Xrotation Zrotation
    JOINT RightToe
    {
     OFFSET 0.000000 -4.965400 11.033500
     CHANNELS 3 Yrotation Xrotation Zrotation
     End Site
     {
      OFFSET 0.000000 -1.423100 5.872300
     }
    }
   }
  }
 }
 JOINT LeftHip
 {
  OFFSET 7.771700 -0.012900 -0.001300
  CHANNELS 3 Yrotation Xrotation Zrotation
  JOINT LeftKnee
  {
   OFFSET 0.000000 -40.869800 0.001200
   CHANNELS 3 Yrotation Xrotation Zrotation
   JOINT LeftAnkle
   {
    OFFSET 0.000000 -39.717900 0.002100
    CHANNELS 3 Yrotation Xrotation Zrotation
    JOINT LeftToe
    {
     OFFSET 0.000000 -4.965400 11.033500
     CHANNELS 3 Yrotation Xrotation Zrotation
     End Site
     {
      OFFSET 0.000000 -1.423100 5.872300
     }
    }
   }
  }
 }
}
MOTION
Frames: 8
Frame Time: 0.008333
0.000000 85.388000 0.000000 0.000000 -5.767877 0.000000 0.000000 11.653817 0.000000 0.000000 -5.885947 0.000000 0.000000 -0.000000 0.000000 0.000000 -0.000000 0.000000 0.000000 12.528835 0.000000 0.000000 0.711642 0.000000 0.000000 -0.000000 0.000000 0.000000 0.000000 -90.000000 0.000000 -2.309062 0.000000 0.000000 2.309062 0.000000 0.000000 -0.000000 0.000000 0.000000 -0.000000 90.000000 0.000000 -2.309062 0.000000 0.000000 2.309062 0.000000 0.000000 8.520406 0.000000 0.000000 1.905762 0.000000 -0.000000 -4.658285 0.000000 0.000000 -0.000000 0.000000 0.000000 8.520406 0.000000 0.000000 1.905762 0.000000 -0.000000 -4.658285 0.000000 0.000000 -0.000000 0.000000
-85.278189 62.022104 17.925425 173.250542 -47.082288 -1.263253 4.477701 25.800789 1.755623 0.622801 4.211154 0.248489 1.006737 6.731430 0.425397 3.449387 21.094240 1.803933 5.272163 19.785551 2.598775 8.827811 0.935942 3.142186 3.154244 7.313705 2.060278 -19.995511 -9.760179 -6.926327 -78.305453 -31.214046 125.773808 -16.282916 -22.420731 -29.232668 -6.399200 3.104994 2.435268 13.027189 -9.734135 5.216216 88.455215 -42.091669 -122.157045 24.377695 -26.331948 40.478423 3.182329 -20.234865 -2.866869 -1.110690 60.846994 -4.193968 2.853506 -5.369982 10.672385 0.206263 -0.434410 0.092961 -3.849905 -16.564209 5.988478 28.948243 76.327602 30.609910 1.033094 -11.689604 -5.420803 0.242380 0.756329 0.110290
-85.280230 62.024824 17.927753 173.265446 -47.149193 -1.273514 4.456599 25.792997 1.737775 0.623876 4.230279 0.252230 1.004413 6.736465 0.424446 3.440178 21.101802 1.799291 5.271477 20.015712 2.704129 8.793189 1.357632 3.345838 3.169704 7.401653 2.049506 -19.886963 -9.793396 -6.846576 -77.311460 -30.494488 125.220751 -16.455791 -22.457361 -29.481635 -6.354353 3.164239 2.480921 12.951103 -9.690404 5.140710 87.687114 -41.585594 -121.697979 24.426568 -26.420380 40.930420 3.171590 -20.163356 -2.856977 -1.107586 60.839647 -4.199332 2.839649 -5.366158 10.670701 0.202138 -0.435846 0.096541 -3.850814 -16.497800 5.977444 28.955314 76.318018 30.622994 1.036790 -11.677828 -5.424682 0.234293 0.751101 0.112913
-85.280244 62.032514 17.927021 173.280724 -47.260568 -1.296174 4.444359 25.849056 1.745910 0.622355 4.233619 0.252028 1.005862 6.751496 0.424765 3.426970 21.099265 1.795750 5.274060 20.245715 2.803262 8.767123 1.779527 3.536749 3.189308 7.470180 2.053002 -19.849216 -9.818726 -6.822490 -76.346482 -29.748687 124.774734 -16.605527 -22.473781 -29.650669 -6.322345 3.208847 2.493083 12.893107 -9.628045 5.112214 87.029606 -41.108642 -121.338307 24.436637 -26.485646 41.311831 3.157194 -20.040548 -2.831938 -1.112458 60.823957 -4.208125 2.829414 -5.356897 10.671408 0.209657 -0.441444 0.097565 -3.858617 -16.382282 5.980567 28.952084 76.311241 30.619999 1.038309 -11.657794 -5.426065 0.230998 0.732192 0.112612
-85.282687 62.031873 17.934973 173.269208 -47.305636 -1.293174 4.442509 25.845584 1.744996 0.624373 4.246215 0.252861 1.011792 6.775177 0.426288 3.407963 21.080487 1.794435 5.278748 20.464815 2.892237 8.748680 2.181807 3.707711 3.205397 7.523946 2.058659 -19.693649 -9.759379 -6.765962 -75.653483 -29.161432 124.465689 -16.721437 -22.474655 -29.730767 -6.280824 3.263163 2.536653 12.835933 -9.558814 5.064305 86.511463 -40.704203 -121.085463 24.417254 -26.525476 41.609225 3.165052 -19.996294 -2.819734 -1.120184 60.813043 -4.221451 2.831892 -5.353099 10.677030 0.206238 -0.435881 0.097819 -3.846738 -16.337665 5.978530 28.953774 76.304161 30.626373 1.040002 -11.662490 -5.429039 0.230495 0.739790 0.111668
-85.286372 62.030553 17.944621 173.265708 -47.342657 -1.292453 4.434866 25.843955 1.742775 0.631927 4.273634 0.254160 0.999787 6.746334 0.424612 3.413534 21.108219 1.797911 5.279912 20.655218 2.974267 8.735195 2.537455 3.854211 3.211609 7.548088 2.061513 -19.619363 -9.673571 -6.752478 -75.048038 -28.677876 124.264450 -16.802853 -22.463763 -29.718815 -6.252794 3.297714 2.579388 12.783467 -9.471891 5.039393 86.133114 -40.424370 -120.928476 24.395173 -26.553975 41.801618 3.175287 -19.959491 -2.811719 -1.130871 60.801065 -4.234582 2.825224 -5.348876 10.682492 0.206977 -0.428750 0.100199 -3.842010 -16.302984 5.969363 28.976010 76.289011 30.655738 1.035997 -11.658039 -5.434736 0.235640 0.745100 0.111252
-85.290006 62.032328 17.952675 173.262929 -47.399179 -1.294420 4.433049 25.874067 1.749173 0.626255 4.264537 0.251694 0.998883 6.754517 0.425843 3.418091 21.127357 1.799583 5.288097 20.827217 3.047725 8.722329 2.829579 3.974476 3.216166 7.568209 2.064820 -19.583008 -9.581633 -6.764241 -74.590801 -28.373420 124.140349 -16.850595 -22.438983 -29.623051 -6.196522 3.365711 2.651946 12.703655 -9.401667 4.993475 85.896295 -40.303370 -120.851901 24.391805 -26.584281 41.876272 3.185610 -19.899563 -2.802622 -1.136555 60.785558 -4.239010 2.818240 -5.341037 10.686609 0.210854 -0.432039 0.099489 -3.840560 -16.246164 5.962966 28.979746 76.275165 30.660228 1.038867 -11.646959 -5.434301 0.237853 0.744434 0.108416
-85.298356 62.035296 17.960229 173.290520 -47.457378 -1.293816 4.403594 25.920732 1.733642 0.622548 4.260158 0.249364 1.000200 6.779328 0.439415 3.409305 21.127556 1.791999 5.301980 20.970253 3.103592 8.707432 3.054310 4.067720 3.207300 7.595947 2.071426 -19.539582 -9.488926 -6.800683 -74.344898 -28.275547 124.102298 -16.857076 -22.397027 -29.459087 -6.151158 3.424330 2.694682 12.617398 -9.326652 4.984694 85.803685 -40.322661 -120.846399 24.394032 -26.612347 41.836629 3.185086 -19.830851 -2.822643 -1.139397 60.764931 -4.236747 2.794326 -5.326933 10.681366 0.231752 -0.432659 0.109660 -3.851863 -16.186324 5.931151 28.932048 76.254158 30.615221 1.016706 -11.644300 -5.445040 0.270051 0.759908 0.123272
